<svg xmlns="http://www.w3.org/2000/svg" version="1.1" xmlns:xlink="http://www.w3.org/1999/xlink" xmlns:svgjs="http://svgjs.dev/svgjs" width="1500" height="1500" viewBox="0 0 1500 1500"><rect width="1500" height="1500" fill="#000000"></rect><g transform="matrix(0.6666666666666666,0,0,0.6666666666666666,249.39524436016342,444.9219484251233)"><svg viewBox="0 0 396 242" data-background-color="#ffffff" preserveAspectRatio="xMidYMid meet" height="916" width="1500" xmlns="http://www.w3.org/2000/svg" xmlns:xlink="http://www.w3.org/1999/xlink"><g id="tight-bounds" transform="matrix(1,0,0,1,0.2405167666246939,-0.10116515100405366)"><svg viewBox="0 0 395.52 242.2023303020081" height="242.2023303020081" width="395.52"><g><svg viewBox="0 0 395.52 242.2023303020081" height="242.2023303020081" width="395.52"><g transform="matrix(1,0,0,1,0,179.3631935351605)"><svg viewBox="0 0 395.52 62.83913676684761" height="62.83913676684761" width="395.52"><g id="textblocktransform"><svg viewBox="0 0 395.52 62.83913676684761" height="62.83913676684761" width="395.52" id="textblock"><g><svg viewBox="0 0 395.52 62.83913676684761" height="62.83913676684761" width="395.52"><g transform="matrix(1,0,0,1,0,0)"><svg width="395.52" viewBox="1.01375 -35.5 226.56625000000003 36" height="62.83913676684761" data-palette-color="#2257bf"><path d="M18.4 0L13.85 0Q13.3 0 12.98-0.35 12.65-0.7 12.65-1.2L12.65-1.2 12.65-27.1 5.05-21.25Q4.6-20.95 4.15-21.03 3.7-21.1 3.35-21.55L3.35-21.55 1.25-24.25Q0.95-24.7 1.03-25.2 1.1-25.7 1.55-26L1.55-26 12.75-34.65Q13.05-34.9 13.35-34.95 13.65-35 14-35L14-35 18.4-35Q18.9-35 19.25-34.65 19.6-34.3 19.6-33.8L19.6-33.8 19.6-1.2Q19.6-0.7 19.25-0.35 18.9 0 18.4 0L18.4 0ZM38.7 0.5L38.7 0.5Q35.2 0.5 32.65-0.35 30.1-1.2 28.42-2.58 26.75-3.95 25.9-5.58 25.05-7.2 25-8.8L25-8.8Q25-9.25 25.32-9.53 25.65-9.8 26.1-9.8L26.1-9.8 30.6-9.8Q31.1-9.8 31.45-9.6 31.8-9.4 32.05-8.8L32.05-8.8Q32.5-7.45 33.52-6.65 34.55-5.85 35.9-5.53 37.25-5.2 38.75-5.2L38.75-5.2Q41.75-5.2 43.52-6.63 45.3-8.05 45.3-10.7L45.3-10.7Q45.3-13.35 43.65-14.53 42-15.7 39.05-15.7L39.05-15.7 33.9-15.7Q33.35-15.7 33-16.03 32.65-16.35 32.65-16.9L32.65-16.9 32.65-19Q32.65-19.5 32.87-19.88 33.1-20.25 33.35-20.5L33.35-20.5 42.3-29.25 28-29.25Q27.45-29.25 27.12-29.6 26.8-29.95 26.8-30.45L26.8-30.45 26.8-33.75Q26.8-34.3 27.12-34.65 27.45-35 28-35L28-35 49.45-35Q50-35 50.35-34.65 50.7-34.3 50.7-33.75L50.7-33.75 50.7-30.75Q50.7-30.3 50.5-29.95 50.3-29.6 50.05-29.35L50.05-29.35 41.4-20.45 42-20.4Q45.05-20.15 47.42-19.03 49.8-17.9 51.12-15.75 52.45-13.6 52.45-10.35L52.45-10.35Q52.45-6.95 50.67-4.53 48.9-2.1 45.8-0.8 42.7 0.5 38.7 0.5ZM71.05 0.5L71.05 0.5Q67.5 0.5 65-0.55 62.5-1.6 60.9-3.45 59.3-5.3 58.5-7.73 57.7-10.15 57.55-12.9L57.55-12.9Q57.5-14.25 57.47-15.88 57.45-17.5 57.47-19.15 57.5-20.8 57.55-22.2L57.55-22.2Q57.65-24.95 58.5-27.38 59.35-29.8 60.97-31.6 62.6-33.4 65.09-34.45 67.59-35.5 71.05-35.5L71.05-35.5Q74.55-35.5 77.05-34.45 79.55-33.4 81.17-31.6 82.8-29.8 83.62-27.38 84.45-24.95 84.55-22.2L84.55-22.2Q84.65-20.8 84.65-19.15 84.65-17.5 84.65-15.88 84.65-14.25 84.55-12.9L84.55-12.9Q84.45-10.15 83.65-7.73 82.84-5.3 81.25-3.45 79.65-1.6 77.12-0.55 74.59 0.5 71.05 0.5ZM71.05-5.25L71.05-5.25Q74.3-5.25 75.82-7.38 77.34-9.5 77.4-13.15L77.4-13.15Q77.5-14.6 77.5-16.07 77.5-17.55 77.5-19.05 77.5-20.55 77.4-21.9L77.4-21.9Q77.34-25.45 75.82-27.63 74.3-29.8 71.05-29.8L71.05-29.8Q67.84-29.8 66.32-27.63 64.8-25.45 64.7-21.9L64.7-21.9Q64.7-20.55 64.67-19.05 64.65-17.55 64.67-16.07 64.7-14.6 64.7-13.15L64.7-13.15Q64.8-9.5 66.34-7.38 67.9-5.25 71.05-5.25ZM103.89 0.5L103.89 0.5Q100.34 0.5 97.84-0.55 95.34-1.6 93.74-3.45 92.14-5.3 91.34-7.73 90.54-10.15 90.39-12.9L90.39-12.9Q90.34-14.25 90.32-15.88 90.29-17.5 90.32-19.15 90.34-20.8 90.39-22.2L90.39-22.2Q90.49-24.95 91.34-27.38 92.19-29.8 93.82-31.6 95.44-33.4 97.94-34.45 100.44-35.5 103.89-35.5L103.89-35.5Q107.39-35.5 109.89-34.45 112.39-33.4 114.02-31.6 115.64-29.8 116.47-27.38 117.29-24.95 117.39-22.2L117.39-22.2Q117.49-20.8 117.49-19.15 117.49-17.5 117.49-15.88 117.49-14.25 117.39-12.9L117.39-12.9Q117.29-10.15 116.49-7.73 115.69-5.3 114.09-3.45 112.49-1.6 109.97-0.55 107.44 0.5 103.89 0.5ZM103.89-5.25L103.89-5.25Q107.14-5.25 108.67-7.38 110.19-9.5 110.24-13.15L110.24-13.15Q110.34-14.6 110.34-16.07 110.34-17.55 110.34-19.05 110.34-20.55 110.24-21.9L110.24-21.9Q110.19-25.45 108.67-27.63 107.14-29.8 103.89-29.8L103.89-29.8Q100.69-29.8 99.17-27.63 97.64-25.45 97.54-21.9L97.54-21.9Q97.54-20.55 97.52-19.05 97.49-17.55 97.52-16.07 97.54-14.6 97.54-13.15L97.54-13.15Q97.64-9.5 99.19-7.38 100.74-5.25 103.89-5.25ZM139.44 0L135.39 0Q132.39 0 130.34-1.05 128.29-2.1 127.29-4.17 126.29-6.25 126.29-9.35L126.29-9.35 126.29-20.7 122.34-20.7Q121.84-20.7 121.49-21.05 121.14-21.4 121.14-21.95L121.14-21.95 121.14-24.8Q121.14-25.3 121.49-25.65 121.84-26 122.34-26L122.34-26 126.29-26 126.29-34.3Q126.29-34.8 126.62-35.15 126.94-35.5 127.49-35.5L127.49-35.5 131.54-35.5Q132.04-35.5 132.39-35.15 132.74-34.8 132.74-34.3L132.74-34.3 132.74-26 138.99-26Q139.49-26 139.84-25.65 140.19-25.3 140.19-24.8L140.19-24.8 140.19-21.95Q140.19-21.4 139.84-21.05 139.49-20.7 138.99-20.7L138.99-20.7 132.74-20.7 132.74-9.85Q132.74-7.8 133.47-6.65 134.19-5.5 135.99-5.5L135.99-5.5 139.44-5.5Q139.94-5.5 140.29-5.15 140.64-4.8 140.64-4.3L140.64-4.3 140.64-1.2Q140.64-0.7 140.29-0.35 139.94 0 139.44 0L139.44 0ZM156.29 0.5L156.29 0.5Q150.74 0.5 147.49-2.7 144.24-5.9 143.99-11.8L143.99-11.8Q143.94-12.3 143.94-13.08 143.94-13.85 143.99-14.3L143.99-14.3Q144.19-18.1 145.71-20.83 147.24-23.55 149.94-25.03 152.64-26.5 156.29-26.5L156.29-26.5Q160.34-26.5 163.09-24.83 165.84-23.15 167.24-20.18 168.64-17.2 168.64-13.3L168.64-13.3 168.64-12.25Q168.64-11.75 168.29-11.4 167.94-11.05 167.39-11.05L167.39-11.05 150.79-11.05Q150.79-11.05 150.79-10.9 150.79-10.75 150.79-10.65L150.79-10.65Q150.84-8.9 151.46-7.43 152.09-5.95 153.31-5.05 154.54-4.15 156.24-4.15L156.24-4.15Q157.64-4.15 158.59-4.58 159.54-5 160.14-5.55 160.74-6.1 160.99-6.45L160.99-6.45Q161.44-7.05 161.71-7.18 161.99-7.3 162.54-7.3L162.54-7.3 166.84-7.3Q167.34-7.3 167.66-7 167.99-6.7 167.94-6.25L167.94-6.25Q167.89-5.45 167.11-4.3 166.34-3.15 164.89-2.05 163.44-0.95 161.26-0.23 159.09 0.5 156.29 0.5ZM150.79-15.4L150.79-15.25 161.84-15.25 161.84-15.4Q161.84-17.35 161.19-18.82 160.54-20.3 159.29-21.13 158.04-21.95 156.29-21.95L156.29-21.95Q154.54-21.95 153.29-21.13 152.04-20.3 151.41-18.82 150.79-17.35 150.79-15.4L150.79-15.4ZM185.19 0.5L185.19 0.5Q181.59 0.5 178.86-0.85 176.14-2.2 174.61-4.78 173.09-7.35 172.94-11L172.94-11Q172.89-11.75 172.89-12.98 172.89-14.2 172.94-15L172.94-15Q173.09-18.65 174.61-21.23 176.14-23.8 178.86-25.15 181.59-26.5 185.19-26.5L185.19-26.5Q188.39-26.5 190.64-25.63 192.89-24.75 194.34-23.38 195.79-22 196.51-20.53 197.24-19.05 197.29-17.85L197.29-17.85Q197.34-17.3 196.96-16.98 196.59-16.65 196.09-16.65L196.09-16.65 191.69-16.65Q191.19-16.65 190.91-16.9 190.64-17.15 190.39-17.65L190.39-17.65Q189.64-19.65 188.41-20.48 187.19-21.3 185.29-21.3L185.29-21.3Q182.79-21.3 181.31-19.73 179.84-18.15 179.74-14.75L179.74-14.75Q179.64-12.85 179.74-11.25L179.74-11.25Q179.84-7.8 181.31-6.25 182.79-4.7 185.29-4.7L185.29-4.7Q187.24-4.7 188.44-5.53 189.64-6.35 190.39-8.35L190.39-8.35Q190.64-8.85 190.91-9.1 191.19-9.35 191.69-9.35L191.69-9.35 196.09-9.35Q196.59-9.35 196.96-9.03 197.34-8.7 197.29-8.15L197.29-8.15Q197.24-7.25 196.81-6.13 196.39-5 195.46-3.83 194.54-2.65 193.14-1.68 191.74-0.7 189.76-0.1 187.79 0.5 185.19 0.5ZM208.18 0L203.73 0Q203.23 0 202.88-0.35 202.53-0.7 202.53-1.2L202.53-1.2 202.53-34.3Q202.53-34.8 202.88-35.15 203.23-35.5 203.73-35.5L203.73-35.5 208.18-35.5Q208.73-35.5 209.06-35.15 209.38-34.8 209.38-34.3L209.38-34.3 209.38-22.9Q210.73-24.5 212.68-25.5 214.63-26.5 217.48-26.5L217.48-26.5Q220.53-26.5 222.81-25.13 225.08-23.75 226.33-21.25 227.58-18.75 227.58-15.25L227.58-15.25 227.58-1.2Q227.58-0.7 227.23-0.35 226.88 0 226.38 0L226.38 0 221.88 0Q221.38 0 221.03-0.35 220.68-0.7 220.68-1.2L220.68-1.2 220.68-14.95Q220.68-17.85 219.26-19.5 217.83-21.15 215.13-21.15L215.13-21.15Q212.53-21.15 210.96-19.5 209.38-17.85 209.38-14.95L209.38-14.95 209.38-1.2Q209.38-0.7 209.06-0.35 208.73 0 208.18 0L208.18 0Z" opacity="1" transform="matrix(1,0,0,1,0,0)" fill="#ffffff" class="wordmark-text-0" data-fill-palette-color="primary" id="text-0"></path></svg></g></svg></g></svg></g></svg></g><g transform="matrix(1,0,0,1,122.91321528379007,0)"><svg viewBox="0 0 149.69356943241985 149.69356943241985" height="149.69356943241985" width="149.69356943241985"><g><svg></svg></g><g id="icon-0"><svg viewBox="0 0 149.69356943241985 149.69356943241985" height="149.69356943241985" width="149.69356943241985"><g><path d="M0 74.847c0-41.337 33.51-74.847 74.847-74.847 41.337 0 74.847 33.51 74.847 74.847 0 41.337-33.51 74.847-74.847 74.847-41.337 0-74.847-33.51-74.847-74.847zM74.847 144.027c38.207 0 69.18-30.973 69.18-69.18 0-38.207-30.973-69.18-69.18-69.18-38.207 0-69.18 30.973-69.18 69.18 0 38.207 30.973 69.18 69.18 69.18z" data-fill-palette-color="accent" fill="#ffffff" stroke="transparent"></path><ellipse rx="74.09831686904782" ry="74.09831686904782" cx="74.84678471620992" cy="74.84678471620992" fill="#ffffff" stroke="transparent" stroke-width="0" fill-opacity="1" data-fill-palette-color="accent"></ellipse></g><g transform="matrix(1,0,0,1,39.808198651627364,34.57117145097677)"><svg viewBox="0 0 70.07717212916512 80.55122653046631" height="80.55122653046631" width="70.07717212916512"><g><svg xmlns="http://www.w3.org/2000/svg" xmlns:xlink="http://www.w3.org/1999/xlink" version="1.1" x="0" y="0" viewBox="7.389475272404739 1.7684183262583684 75.22153526668181 86.46448969241725" enable-background="new 0 0 90 90" xml:space="preserve" height="80.55122653046631" width="70.07717212916512" class="icon-cg-0" data-fill-palette-color="quaternary" id="cg-0"><path d="M42.593 53.812c-1.264-0.408-2.375-1.234-3.137-2.37-1.837-2.757-1.095-6.488 1.646-8.328l0.935-0.624-0.317-0.478-5.275-3.655c-1.239-0.854-2.932-0.546-3.787 0.69-0.858 1.237-0.551 2.931 0.685 3.788-2.336 0.423-4.517 1.738-5.979 3.849L9.042 73.132c-2.919 4.216-1.87 10.005 2.35 12.928l0.384 0.269c4.219 2.919 10.006 1.872 12.928-2.348l18.326-26.447c0.153-0.224 0.252-0.466 0.384-0.698C43.022 55.857 42.728 54.849 42.593 53.812zM15.241 77.1c-0.41 0.595-1.229 0.739-1.825 0.332-0.595-0.413-0.742-1.231-0.329-1.825l17.355-25.05c0.41-0.596 1.229-0.746 1.824-0.332 0.592 0.413 0.739 1.229 0.333 1.825L15.241 77.1zM38.323 56.017L20.968 81.064c-0.413 0.599-1.229 0.743-1.824 0.331-0.595-0.413-0.743-1.229-0.33-1.82l17.355-25.055c0.413-0.593 1.226-0.742 1.822-0.33C38.585 54.604 38.733 55.42 38.323 56.017z" fill="#000000" data-fill-palette-color="quaternary"></path><path d="M58.025 39.032c-0.836-1.247-2.525-1.587-3.774-0.751l-11.325 7.555c-1.245 0.838-1.582 2.527-0.75 3.779 0.839 1.248 2.529 1.586 3.777 0.752-0.466 2.328-0.044 4.839 1.384 6.975l17.864 26.757c2.849 4.269 8.616 5.418 12.884 2.569l0.394-0.262c4.267-2.849 5.416-8.62 2.567-12.887L63.183 46.761c-1.425-2.133-3.579-3.487-5.909-3.951C58.521 41.974 58.858 40.284 58.025 39.032zM71.168 79.79c0.403 0.602 0.24 1.417-0.36 1.821-0.603 0.4-1.415 0.237-1.818-0.363L52.068 55.901c-0.403-0.602-0.239-1.416 0.362-1.816 0.602-0.402 1.415-0.238 1.82 0.362L71.168 79.79zM76.962 75.923c0.4 0.603 0.24 1.419-0.361 1.821-0.603 0.398-1.415 0.237-1.818-0.363l-16.92-25.348c-0.403-0.602-0.244-1.417 0.361-1.815 0.602-0.4 1.415-0.239 1.818 0.363L76.962 75.923z" fill="#000000" data-fill-palette-color="quaternary"></path><path d="M31.611 20.969l13.216 19.795 4.007-2.677L35.622 18.292l-0.675-6.637c-0.016-0.14-0.073-0.272-0.172-0.377l-8.621-9.298c-0.224-0.237-0.583-0.281-0.848-0.101l-4.901 3.273c-0.269 0.176-0.365 0.523-0.23 0.816L25.456 17.5c0.058 0.129 0.16 0.233 0.285 0.303L31.611 20.969z" fill="#000000" data-fill-palette-color="quaternary"></path><path d="M50.379 34.494L67.945 9.4c0.631-0.899 1.203-2.98 0.813-4.153l-3.495 4.961c-0.23 0.326-0.688 0.406-1.015 0.176-0.326-0.232-0.407-0.687-0.176-1.015l3.498-4.962c-1.238 0.031-3.003 1.266-3.636 2.166L47.459 30.117 50.379 34.494z" fill="#000000" data-fill-palette-color="quaternary"></path></svg></g></svg></g></svg></g></svg></g><g></g></svg></g><defs></defs></svg><rect width="395.52" height="242.2023303020081" fill="none" stroke="none" visibility="hidden"></rect></g></svg></g></svg>